<?xml version="1.0" encoding="utf-8"?>
<!-- Generator: Adobe Illustrator 27.8.0, SVG Export Plug-In . SVG Version: 6.00 Build 0)  -->
<svg version="1.1" id="Layer_1" xmlns="http://www.w3.org/2000/svg" xmlns:xlink="http://www.w3.org/1999/xlink" x="0px" y="0px"
	 viewBox="0 0 311.1 76.7" style="enable-background:new 0 0 311.1 76.7;" xml:space="preserve">
<style type="text/css">
	.st0{fill:#0072C6;}
	.st1{fill:#383838;}
	.st2{fill:#FFFFFF;}
</style>
<path class="st0" d="M0.1,76.5h2v-7.8l0,0l4,7.8h2.6V66h-2v7.8l0,0l-4-7.8H0.1V76.5z M11.1,76.5h2.1v-4.6h4.2v4.6h2.1V66h-2.1v4.2
	h-4.2V66h-2.1C11.1,66,11.1,76.5,11.1,76.5z M27.7,66.2c-0.8-0.3-1.6-0.4-2.5-0.4c-1.8,0-3.7,0.9-3.7,3.2c0,3.5,4.6,2.6,4.6,4.6
	c0,0.9-1.1,1.4-1.9,1.4s-1.7-0.3-2.4-0.6l-0.2,1.9c1,0.3,1.5,0.4,2.7,0.4c2.1,0,3.9-0.9,3.9-3.2c0-3.5-4.6-2.7-4.6-4.6
	c0-1.1,0.9-1.5,1.7-1.5c0.7,0,1.5,0.2,2.1,0.5L27.7,66.2z M34.5,76.5h2.1v-4.6h3.5v-1.7h-3.5v-2.6h3.7V66h-5.8V76.5z M41.3,72.7
	c0,2.2,1.5,4,4,4c2.6,0,4.1-1.8,4.1-4c0-2.6-1.8-4.1-4.1-4.1S41.3,70.1,41.3,72.7 M43.4,72.5c0-1.2,0.6-2.3,1.9-2.3
	c1.3,0,2,1.1,2,2.3c0,1.3-0.4,2.7-2,2.7C43.8,75.1,43.4,73.7,43.4,72.5 M58.1,68.8h-2v3.8c0,1-0.3,2.6-1.8,2.6
	C53,75.2,53,73.9,53,73v-4.1h-2v4.9c0,1.7,0.8,3,2.6,3c1.1,0,1.9-0.5,2.5-1.2l0,0v1.1H58L58.1,68.8L58.1,68.8z M60.1,76.5h2v-3.8
	c0-1,0.3-2.6,1.8-2.6c1.3,0,1.3,1.3,1.3,2.2v4.1h2v-4.9c0-1.7-0.8-3-2.6-3c-1.1,0-1.9,0.3-2.5,1.2l0,0v-1.1h-1.9L60.1,76.5
	L60.1,76.5z M70.9,72.6c0-1,0.4-2.5,1.7-2.5c1.3,0,1.8,1.4,1.8,2.5s-0.4,2.5-1.8,2.5C71.3,75.1,70.9,73.7,70.9,72.6 M74.5,76.5h2
	V65.2h-2v4.4l0,0c-0.6-0.7-1.3-1.1-2.3-1.1c-2.4,0-3.2,1.9-3.2,4s0.9,4.1,3.2,4.1c0.9,0,1.8-0.3,2.4-1.1l0,0L74.5,76.5L74.5,76.5z
	 M78.9,70.9c0.7-0.5,1.5-0.8,2.4-0.8c1.2,0,1.7,0.4,1.7,1.7h-1.1c-0.8,0-1.8,0.1-2.6,0.5c-0.8,0.4-1.3,1.1-1.3,2.2
	c0,1.5,1.3,2.3,2.7,2.3c0.9,0,1.9-0.5,2.4-1.3l0,0c0,0.2,0,0.8,0.1,1.2H85c0-0.6-0.1-1.1-0.1-1.7s0-1.2,0-1.9v-1
	c0-2.3-1-3.3-3.3-3.3c-0.9,0-1.9,0.2-2.7,0.6V70.9z M79.9,74.3c0-1.2,1.3-1.3,2.2-1.3H83c0,0.6-0.1,1.2-0.4,1.6s-0.8,0.7-1.4,0.7
	C80.5,75.2,79.9,74.9,79.9,74.3 M87.5,74.2c0,1.5,0.9,2.5,2.4,2.5c0.6,0,1.1-0.1,1.5-0.2l-0.1-1.6c-0.2,0.1-0.6,0.2-0.9,0.2
	c-0.8,0-0.9-0.6-0.9-1.3v-3.6h1.8v-1.5h-1.8v-2.2l-2,0.6v1.5H86v1.5h1.5V74.2z M92.7,76.5h2v-7.7h-2V76.5z M92.7,67.4h2v-1.9h-2
	V67.4z M96.4,72.7c0,2.2,1.5,4,4,4c2.6,0,4.1-1.8,4.1-4c0-2.6-1.8-4.1-4.1-4.1C98.1,68.6,96.4,70.1,96.4,72.7 M98.5,72.5
	c0-1.2,0.6-2.3,1.9-2.3s2,1.1,2,2.3c0,1.3-0.4,2.7-2,2.7C98.9,75.1,98.5,73.7,98.5,72.5 M106,76.5h2v-3.8c0-1,0.3-2.6,1.8-2.6
	c1.3,0,1.3,1.3,1.3,2.2v4.1h2v-4.9c0-1.7-0.8-3-2.6-3c-1.1,0-1.9,0.3-2.5,1.2l0,0v-1.1h-2V76.5z M121.5,76.5h2.1v-8.8h3V66h-8.1v1.7
	h3V76.5z M126.4,76.5h2v-2.8c0-1.1,0-3.2,1.6-3.2c0.4,0,0.7,0.1,0.9,0.2v-2c-0.2-0.1-0.4-0.1-0.6-0.1c-1.2,0-2,1.2-2.1,1.9l0,0v-1.8
	h-1.8L126.4,76.5L126.4,76.5z M139.3,68.8h-2v3.8c0,1-0.3,2.6-1.8,2.6c-1.3,0-1.3-1.3-1.3-2.2v-4.1h-2v4.9c0,1.7,0.8,3,2.6,3
	c1.1,0,1.9-0.5,2.5-1.2l0,0v1.1h1.9v-7.9H139.3z M146.1,68.9c-0.6-0.1-1.2-0.3-2.2-0.3c-1.6,0-3,0.7-3,2.4c0,2.8,3.5,1.8,3.5,3.3
	c0,0.8-0.8,0.9-1.3,0.9c-0.7,0-1.4-0.2-2-0.5l-0.1,1.7c0.7,0.2,1.5,0.3,2.3,0.3c1.6,0,3.2-0.7,3.2-2.5c0-2.8-3.5-2-3.5-3.2
	c0-0.7,0.6-0.9,1.2-0.9c0.7,0,1.2,0.1,1.8,0.3L146.1,68.9z M148.7,74.2c0,1.5,0.9,2.5,2.4,2.5c0.6,0,1.1-0.1,1.5-0.2l-0.1-1.6
	c-0.2,0.1-0.6,0.2-0.9,0.2c-0.8,0-0.9-0.6-0.9-1.3v-3.6h1.8v-1.5h-1.8v-2.2l-2,0.6v1.5h-1.5v1.5h1.5V74.2z"/>
<path class="st1" d="M216,56.6h3.2v-6.9h6.3v6.9h3.2V40.9h-3.2v6.4h-6.3v-6.4H216V56.6z M231.3,50.9c0,3.3,2.2,6,6.1,6
	c3.9,0,6.1-2.7,6.1-6c0-3.8-2.6-6.2-6.1-6.2C233.9,44.7,231.3,47.1,231.3,50.9 M234.4,50.5c0-1.7,0.9-3.4,2.9-3.4s2.9,1.7,2.9,3.4
	c0,1.9-0.6,4-2.9,4S234.4,52.5,234.4,50.5 M252.9,45.2c-0.9-0.2-1.9-0.4-3.3-0.4c-2.4,0-4.6,1.1-4.6,3.6c0,4.2,5.3,2.6,5.3,4.9
	c0,1.1-1.2,1.4-2,1.4c-1,0-2-0.3-3-0.8l-0.2,2.5c1.1,0.3,2.3,0.5,3.4,0.5c2.5,0,4.9-1.1,4.9-3.8c0-4.2-5.3-3-5.3-4.9
	c0-1,1-1.3,1.8-1.3c1.1,0,1.8,0.2,2.7,0.5L252.9,45.2z M255.8,61.4h3v-6.1l0,0c1.1,1.3,2.1,1.6,3.4,1.6c3.6,0,4.9-2.9,4.9-6.1
	c0-3.2-1.3-6-4.9-6c-1.8,0-2.9,0.8-3.6,1.9l0,0V45h-2.9v16.4H255.8z M261.5,47.1c2,0,2.5,2.1,2.5,3.7c0,1.6-0.6,3.8-2.5,3.8
	c-2,0-2.7-2.1-2.7-3.8C258.8,49.2,259.6,47.1,261.5,47.1 M269.6,56.6h3V45h-3V56.6z M269.6,42.9h3V40h-3V42.9z M276.8,53.1
	c0,2.3,1.3,3.8,3.7,3.8c0.9,0,1.6-0.1,2.2-0.3l-0.1-2.4c-0.3,0.2-0.8,0.3-1.4,0.3c-1.1,0-1.4-0.9-1.4-1.9v-5.4h2.7V45h-2.7v-3.3
	l-3,1V45h-2.2v2.2h2.2L276.8,53.1L276.8,53.1z M285.2,48.2c1-0.8,2.3-1.3,3.6-1.3c1.8,0,2.6,0.6,2.6,2.5h-1.7
	c-1.3,0-2.7,0.1-3.9,0.7c-1.1,0.6-2,1.6-2,3.3c0,2.2,2,3.4,4.1,3.4c1.4,0,2.9-0.7,3.6-2l0,0c0,0.4,0,1.1,0.1,1.7h2.7
	c-0.1-0.9-0.1-1.7-0.1-2.6c0-0.9,0-1.7,0-2.9v-1.5c0-3.4-1.5-4.9-5-4.9c-1.3,0-2.9,0.3-4,0.9L285.2,48.2z M286.7,53.3
	c0-1.8,2-2,3.4-2h1.3c0,0.9-0.1,1.7-0.6,2.4c-0.5,0.6-1.2,1-2.1,1C287.6,54.7,286.7,54.3,286.7,53.3 M297.2,56.6h3V39.7h-3V56.6z
	 M310.5,45.2c-0.9-0.2-1.9-0.4-3.3-0.4c-2.4,0-4.6,1.1-4.6,3.6c0,4.2,5.3,2.6,5.3,4.9c0,1.1-1.2,1.4-2,1.4c-1,0-2-0.3-3-0.8
	l-0.2,2.5c1.1,0.3,2.3,0.5,3.4,0.5c2.5,0,4.9-1.1,4.9-3.8c0-4.2-5.3-3-5.3-4.9c0-1,1-1.3,1.8-1.3c1.1,0,1.8,0.2,2.7,0.5L310.5,45.2z
	"/>
<path class="st1" d="M0,56.8h9.3v-2.5H3.2V41.1H0V56.8z M11.6,48.4c1-0.8,2.3-1.3,3.6-1.3c1.8,0,2.6,0.6,2.6,2.5h-1.7
	c-1.3,0-2.7,0.1-3.9,0.7c-1.1,0.6-2,1.6-2,3.3c0,2.2,2,3.4,4.1,3.4c1.4,0,2.9-0.7,3.6-2l0,0c0,0.4,0,1.1,0.1,1.7h2.7
	c-0.1-0.9-0.1-1.7-0.1-2.6c0-0.9,0-1.7,0-2.9v-1.5c0-3.4-1.5-4.9-5-4.9c-1.3,0-2.9,0.3-4,0.9L11.6,48.4z M13.1,53.5c0-1.8,2-2,3.4-2
	h1.3c0,0.9-0.1,1.7-0.6,2.4c-0.5,0.6-1.2,1-2.1,1C14,54.9,13.1,54.5,13.1,53.5 M23.5,56.8h3v-5.7c0-1.5,0.5-3.9,2.7-3.9
	c1.9,0,2,1.9,2,3.3v6.2h3v-7.3c0-2.6-1.2-4.6-3.9-4.6c-1.6,0-2.9,0.5-3.8,1.8l0,0V45h-2.9v11.8H23.5z M45.1,45.3
	c-0.8-0.2-1.7-0.4-2.9-0.4c-3.6,0-5.6,2.7-5.6,6c0,3.5,1.9,6.1,5.7,6.1c1.2,0,2.1-0.1,3-0.4l-0.1-2.5c-0.5,0.2-1.5,0.5-2.3,0.5
	c-2.1,0-3.1-1.6-3.1-3.8s1.2-3.7,3.1-3.7c0.9,0,1.5,0.2,2.1,0.4L45.1,45.3z M47.9,48.4c1-0.8,2.3-1.3,3.6-1.3c1.8,0,2.6,0.6,2.6,2.5
	h-1.7c-1.3,0-2.7,0.1-3.9,0.7c-1.1,0.6-2,1.6-2,3.3c0,2.2,2,3.4,4.1,3.4c1.4,0,2.9-0.7,3.6-2l0,0c0,0.4,0,1.1,0.1,1.7H57
	c-0.1-0.9-0.1-1.7-0.1-2.6c0-0.9,0-1.7,0-2.9v-1.5c0-3.4-1.5-4.9-5-4.9c-1.3,0-2.9,0.3-4,0.9V48.4z M49.4,53.5c0-1.8,2-2,3.4-2h1.3
	c0,0.9-0.1,1.7-0.6,2.4c-0.5,0.6-1.2,1-2.1,1C50.3,54.9,49.4,54.5,49.4,53.5 M66.9,45.4C66,45.2,65,45,63.6,45
	c-2.4,0-4.6,1.1-4.6,3.6c0,4.2,5.3,2.6,5.3,4.9c0,1.1-1.2,1.4-2,1.4c-1,0-2-0.3-3-0.8l-0.2,2.5c1.1,0.3,2.3,0.5,3.4,0.5
	c2.5,0,4.9-1.1,4.9-3.8c0-4.2-5.3-3-5.3-4.9c0-1,1-1.3,1.8-1.3c1.1,0,1.8,0.2,2.7,0.5L66.9,45.4z M69.8,56.8h3v-5.7
	c0-1.5,0.5-3.9,2.7-3.9c1.9,0,2,1.9,2,3.3v6.2h3v-7.3c0-2.6-1.2-4.6-3.9-4.6c-1.6,0-2.9,0.7-3.7,1.8l0,0v-6.9h-3L69.8,56.8
	L69.8,56.8z M83.7,56.8h3V45.2h-3V56.8z M83.7,43.1h3v-2.9h-3V43.1z M89.9,56.8h3v-4.3c0-1.7,0-4.7,2.5-4.7c0.5,0,1.1,0.1,1.4,0.2
	v-3c-0.3-0.1-0.6-0.1-0.9-0.1c-1.8,0-3,1.8-3.2,2.9l0,0v-2.6H90v11.6H89.9z M100.4,49.9c0.1-1.6,1-2.7,2.7-2.7s2.4,1.3,2.5,2.7
	H100.4z M107.5,53.7c-1.1,0.6-2.4,1.2-3.9,1.2c-1.9,0-3.2-1.1-3.3-2.9h8c0-4.1-1.2-7-5.5-7c-3.6,0-5.4,2.8-5.4,6.1
	c0,3.8,2.2,6,6.1,6c1.6,0,2.9-0.3,4-0.9C107.5,56.2,107.5,53.7,107.5,53.7z M120.2,56.8h3.2V43.6h4.5v-2.5h-12.2v2.5h4.5V56.8z
	 M129.2,49.9c0.1-1.6,1-2.7,2.7-2.7s2.4,1.3,2.5,2.7H129.2z M136.4,53.7c-1.1,0.6-2.4,1.2-3.9,1.2c-1.9,0-3.2-1.1-3.3-2.9h8
	c0-4.1-1.2-7-5.5-7c-3.6,0-5.4,2.8-5.4,6.1c0,3.8,2.2,6,6.1,6c1.6,0,2.9-0.3,4-0.9V53.7z M140.2,48.4c1-0.8,2.3-1.3,3.6-1.3
	c1.8,0,2.6,0.6,2.6,2.5h-1.7c-1.3,0-2.8,0.1-3.9,0.7c-1.1,0.6-2,1.6-2,3.3c0,2.2,2,3.4,4.1,3.4c1.4,0,2.9-0.7,3.6-2l0,0
	c0,0.4,0,1.1,0.1,1.7h2.7c-0.1-0.9-0.1-1.7-0.1-2.6c0-0.9,0-1.7,0-2.9v-1.5c0-3.4-1.5-4.9-5-4.9c-1.3,0-2.9,0.3-4,0.9L140.2,48.4z
	 M141.7,53.5c0-1.8,2-2,3.4-2h1.3c0,0.9-0.1,1.7-0.6,2.4c-0.5,0.6-1.2,1-2.1,1C142.6,54.9,141.7,54.5,141.7,53.5 M159.9,45.3
	c-0.8-0.2-1.7-0.4-2.9-0.4c-3.6,0-5.6,2.7-5.6,6c0,3.5,1.9,6.1,5.7,6.1c1.2,0,2.1-0.1,3-0.4l-0.1-2.5c-0.5,0.2-1.5,0.5-2.3,0.5
	c-2.1,0-3.1-1.6-3.1-3.8s1.2-3.7,3.1-3.7c0.9,0,1.5,0.2,2.1,0.4L159.9,45.3z M162.1,56.8h3v-5.7c0-1.5,0.5-3.9,2.7-3.9
	c1.9,0,2,1.9,2,3.3v6.2h3v-7.3c0-2.6-1.2-4.6-3.9-4.6c-1.6,0-2.9,0.7-3.7,1.8l0,0v-6.9h-3v17.1H162.1z M175.9,56.8h3V45.2h-3V56.8z
	 M175.9,43.1h3v-2.9h-3V43.1z M182.1,56.8h3v-5.7c0-1.5,0.5-3.9,2.7-3.9c1.9,0,2,1.9,2,3.3v6.2h3v-7.3c0-2.6-1.2-4.6-3.9-4.6
	c-1.6,0-2.9,0.5-3.8,1.8l0,0V45h-2.9v11.8H182.1z M200.9,54.5c-1.7,0-2.6-1.9-2.6-3.5c0-1.8,0.7-3.7,2.7-3.7c1.8,0,2.5,1.6,2.5,3.6
	C203.6,52.8,202.8,54.5,200.9,54.5 M203.7,45.2v1.6l0,0c-0.8-1.3-2-1.8-3.6-1.8c-3.5,0-4.9,3.2-4.9,6c0,3.1,1.3,5.9,4.7,5.9
	c1.7,0,3-0.9,3.6-1.8l0,0c0,2-0.2,4.5-3.5,4.5c-0.9,0-2.5-0.5-3.4-1l-0.2,2.6c1.4,0.6,2.8,0.8,4,0.8c4.9,0,6.1-3,6.1-6.1V45.2H203.7
	z"/>
<rect x="2" y="1.1" class="st2" width="76.1" height="29.2"/>
<path class="st0" d="M79.8,0H0.5v31.9h79.3V0z M32.4,3.1l-5.5,25.7h-8.6L12.9,11h-0.1L9.2,28.8H2.7L8.2,3.1h8.6l5.3,17.8h0.1
	l3.6-17.8C25.8,3.1,32.4,3.1,32.4,3.1z M57,3.1l-5.4,25.7h-6.9l2.3-11h-8.2l-2.3,11h-6.9L35,3.1h6.9l-2,9.8H48l2-9.8
	C50,3.1,57,3.1,57,3.1z M76.8,3.8l-1.7,5.1c-1.3-0.6-3.1-1.2-5.7-1.2c-2.7,0-5,0.4-5,2.5c0,3.6,10,2.3,10,10.1
	c0,7.1-6.6,8.9-12.6,8.9c-2.7,0-5.7-0.6-8-1.3l1.6-5.2c1.4,0.9,4.1,1.5,6.4,1.5c2.1,0,5.5-0.4,5.5-3.1c0-4.1-10-2.6-10-9.8
	c0-6.6,5.8-8.6,11.5-8.6C72.1,2.6,75.1,3,76.8,3.8"/>
</svg>
